<svg width="352" height="448" viewBox="0 0 352 448" fill="none" xmlns="http://www.w3.org/2000/svg">
<path d="M72 408H328C334.359 407.981 340.453 405.446 344.95 400.95C349.446 396.453 351.981 390.359 352 384V376C345.08 381.201 336.656 384.009 328 384H32C23.5131 384 15.3737 387.371 9.37258 393.373C3.37142 399.374 0 407.513 0 416C0 424.487 3.37142 432.626 9.37258 438.627C15.3737 444.629 23.5131 448 32 448H328C334.359 447.981 340.453 445.446 344.95 440.95C349.446 436.453 351.981 430.359 352 424V415.76C345.128 421.079 336.69 423.976 328 424H72C69.8783 424 67.8434 423.157 66.3431 421.657C64.8428 420.157 64 418.122 64 416C64 413.878 64.8428 411.843 66.3431 410.343C67.8434 408.843 69.8783 408 72 408ZM40 424H24C21.8783 424 19.8434 423.157 18.3431 421.657C16.8429 420.157 16 418.122 16 416C16 413.878 16.8429 411.843 18.3431 410.343C19.8434 408.843 21.8783 408 24 408H40C42.1217 408 44.1566 408.843 45.6569 410.343C47.1571 411.843 48 413.878 48 416C48 418.122 47.1571 420.157 45.6569 421.657C44.1566 423.157 42.1217 424 40 424Z" fill="#222831"/>
<path d="M189.84 180.944L176 138.336V138.24L162.16 180.944C161.116 184.159 159.08 186.96 156.345 188.946C153.61 190.932 150.316 192.001 146.936 192H102.136L138.4 218.336C141.131 220.322 143.164 223.121 144.207 226.333C145.25 229.545 145.251 233.004 144.208 236.216L130.368 278.832L166.608 252.496C169.341 250.51 172.633 249.441 176.012 249.441C179.391 249.441 182.683 250.51 185.416 252.496L221.672 278.832L207.824 236.224C206.78 233.011 206.779 229.55 207.822 226.337C208.866 223.123 210.899 220.323 213.632 218.336L249.864 192H205.064C201.684 192.001 198.39 190.932 195.655 188.946C192.92 186.96 190.884 184.159 189.84 180.944V180.944Z" fill="#222831"/>
<path d="M75.04 81.76C76.4426 80.622 78.1938 80.0008 80 80.0008C81.8062 80.0008 83.5574 80.622 84.96 81.76L112 103.36V0H48V103.36L75.04 81.76Z" fill="#222831"/>
<path d="M352 24C351.981 17.6406 349.446 11.5472 344.95 7.05042C340.453 2.55366 334.359 0.0189927 328 0H128V120C127.996 121.508 127.565 122.984 126.759 124.258C125.952 125.532 124.801 126.552 123.44 127.2C122.377 127.746 121.195 128.021 120 128C118.191 128.015 116.435 127.392 115.04 126.24L80 98.24L44.96 126.24C43.7975 127.185 42.3888 127.778 40.9003 127.948C39.4118 128.118 37.9057 127.858 36.56 127.2C35.1986 126.552 34.0482 125.532 33.2414 124.258C32.4346 122.984 32.0043 121.508 32 120V0H24C17.6406 0.0189927 11.5472 2.55366 7.05042 7.05042C2.55365 11.5472 0.0189927 17.6406 0 24V380.32C8.77753 372.4 20.1773 368.011 32 368H328C334.359 367.981 340.453 365.446 344.95 360.95C349.446 356.453 351.981 350.359 352 344V24ZM259.272 204.944L223.024 231.28L236.864 273.888C237.947 277.098 237.967 280.571 236.921 283.793C235.875 287.015 233.818 289.815 231.056 291.776C228.337 293.796 225.039 294.887 221.652 294.887C218.265 294.887 214.967 293.796 212.248 291.776L176 265.44L139.752 291.776C137.018 293.76 133.727 294.827 130.35 294.826C126.972 294.825 123.681 293.755 120.949 291.77C118.217 289.784 116.183 286.985 115.139 283.773C114.094 280.561 114.094 277.101 115.136 273.888L128.976 231.28L92.728 204.944C89.9943 202.958 87.9597 200.157 86.9157 196.943C85.8717 193.729 85.872 190.268 86.9166 187.054C87.9611 183.84 89.9963 181.04 92.7303 179.054C95.4644 177.069 98.7569 175.999 102.136 176H146.936L160.8 133.392C161.852 130.191 163.888 127.404 166.617 125.428C169.347 123.452 172.63 122.388 176 122.388C179.37 122.388 182.653 123.452 185.383 125.428C188.112 127.404 190.148 130.191 191.2 133.392L205.064 176H249.864C253.243 175.999 256.536 177.069 259.27 179.054C262.004 181.04 264.039 183.84 265.083 187.054C266.128 190.268 266.128 193.729 265.084 196.943C264.04 200.157 262.006 202.958 259.272 204.944V204.944ZM320 312C320 318.365 317.471 324.47 312.971 328.971C308.47 333.471 302.365 336 296 336H272C269.878 336 267.843 335.157 266.343 333.657C264.843 332.157 264 330.122 264 328C264 325.878 264.843 323.843 266.343 322.343C267.843 320.843 269.878 320 272 320H296C298.122 320 300.157 319.157 301.657 317.657C303.157 316.157 304 314.122 304 312V288C304 285.878 304.843 283.843 306.343 282.343C307.843 280.843 309.878 280 312 280C314.122 280 316.157 280.843 317.657 282.343C319.157 283.843 320 285.878 320 288V312Z" fill="#222831"/>
</svg>
