<svg width="358" height="454" viewBox="0 0 358 454" fill="none" xmlns="http://www.w3.org/2000/svg">
<path d="M318.333 415.167L318.338 415.167C325.643 415.146 332.76 412.961 338.833 408.916V413.662C338.817 419.21 336.645 424.52 332.8 428.435C328.956 432.349 323.753 434.55 318.329 434.567H47C39.627 434.567 32.5503 431.585 27.3284 426.268C22.1055 420.95 19.1667 413.732 19.1667 406.2C19.1667 398.668 22.1055 391.45 27.3284 386.132C32.5503 380.815 39.627 377.833 47 377.833H318.332C325.617 377.841 332.728 375.721 338.833 371.759V376.329C338.817 381.877 336.645 387.187 332.8 391.102C328.956 395.016 323.753 397.217 318.329 397.233H83.6667C81.3151 397.233 79.0654 398.185 77.411 399.869C75.7575 401.553 74.8333 403.831 74.8333 406.2C74.8333 408.569 75.7575 410.847 77.411 412.531C79.0654 414.215 81.3151 415.167 83.6667 415.167L318.333 415.167ZM39.6688 19.4333H45.5L45.5 129.933L45.5 129.938C45.5047 131.622 45.9767 133.273 46.8643 134.7C47.7506 136.124 49.0162 137.269 50.5186 138C52.0099 138.741 53.6802 139.033 55.332 138.841C56.9845 138.649 58.5457 137.98 59.832 136.917C59.8335 136.915 59.835 136.914 59.8365 136.913L91 111.558L122.155 136.905C122.158 136.908 122.161 136.911 122.164 136.914C123.708 138.208 125.653 138.913 127.66 138.9C128.993 138.92 130.31 138.608 131.495 137.993C132.991 137.263 134.252 136.12 135.136 134.7C136.023 133.273 136.495 131.622 136.5 129.938V129.933V19.4333H318.331C323.755 19.4505 328.957 21.6515 332.8 25.5648C336.645 29.4796 338.817 34.79 338.833 40.3377V338.996C338.817 344.543 336.645 349.854 332.8 353.769C328.956 357.682 323.753 359.884 318.329 359.9H47H46.9986C36.8811 359.909 27.0937 363.36 19.1667 369.646V40.3352C19.1836 34.7884 21.3554 29.479 25.1997 25.5648C29.0431 21.6515 34.2453 19.4505 39.6688 19.4333ZM318.333 1.5H39.6667C29.5354 1.5 19.8247 5.59805 12.6692 12.8836C5.51467 20.1683 1.5 30.0427 1.5 40.3333V406.2C1.5 418.471 6.28729 430.245 14.8171 438.929C23.3479 447.615 34.9238 452.5 47 452.5H318.333C328.465 452.5 338.175 448.402 345.331 441.116C352.485 433.832 356.5 423.957 356.5 413.667V40.3333C356.5 30.0427 352.485 20.1683 345.331 12.8836C338.175 5.59805 328.465 1.5 318.333 1.5ZM63.1667 19.4333H118.833V111.249L96.502 93.0863C96.5005 93.085 96.4989 93.0837 96.4974 93.0824C94.9458 91.8023 93.0051 91.1008 91 91.1008C88.9946 91.1008 87.0538 91.8025 85.5021 93.0829C85.5007 93.084 85.4993 93.0851 85.498 93.0863L63.1667 111.249V19.4333Z" fill="#222831" stroke="#222831" stroke-width="3"/>
<path d="M54.3333 397.233H39.6667C37.3151 397.233 35.0655 398.185 33.4111 399.869C31.7576 401.553 30.8333 403.831 30.8333 406.2C30.8333 408.569 31.7576 410.847 33.4111 412.531C35.0655 414.215 37.3151 415.167 39.6667 415.167H54.3333C56.6849 415.167 58.9346 414.215 60.589 412.531C62.2425 410.847 63.1667 408.569 63.1667 406.2C63.1667 403.831 62.2425 401.553 60.589 399.869C58.9346 398.185 56.6849 397.233 54.3333 397.233Z" fill="#222831" stroke="#222831" stroke-width="3"/>
<path d="M267 333.033H289C295.241 333.033 301.222 330.509 305.626 326.024C310.031 321.539 312.5 315.463 312.5 309.133V286.733C312.5 284.364 311.576 282.086 309.922 280.403C308.268 278.718 306.018 277.767 303.667 277.767C301.315 277.767 299.065 278.718 297.411 280.403C295.757 282.086 294.833 284.364 294.833 286.733V309.133C294.833 310.724 294.212 312.245 293.115 313.362C292.019 314.478 290.538 315.1 289 315.1H267C264.648 315.1 262.399 316.051 260.744 317.736C259.091 319.419 258.167 321.697 258.167 324.067C258.167 326.436 259.091 328.714 260.744 330.397C262.399 332.082 264.648 333.033 267 333.033Z" fill="#222831" stroke="#222831" stroke-width="3"/>
<path d="M121.779 273.106L121.779 273.107C120.729 276.402 120.73 279.95 121.781 283.244C122.833 286.539 124.884 289.415 127.644 291.458C130.405 293.5 133.734 294.603 137.153 294.605C140.573 294.606 143.902 293.505 146.664 291.464L146.665 291.463L179 267.543L211.322 291.454C211.324 291.455 211.327 291.457 211.329 291.459C214.079 293.537 217.416 294.661 220.848 294.661C224.276 294.661 227.611 293.539 230.36 291.464C233.148 289.443 235.219 286.567 236.273 283.263C237.328 279.956 237.308 276.392 236.218 273.098C236.218 273.095 236.217 273.093 236.216 273.09L223.861 234.362L256.225 210.42L255.333 209.214L256.225 210.42C258.987 208.377 261.038 205.499 262.09 202.203C263.141 198.907 263.141 195.357 262.089 192.061C261.036 188.765 258.985 185.887 256.222 183.845C253.46 181.802 250.129 180.699 246.709 180.7C246.709 180.7 246.708 180.7 246.708 180.7H206.737L194.362 141.976L194.361 141.972C193.301 138.688 191.248 135.824 188.491 133.792C185.733 131.759 182.411 130.662 179 130.662C175.589 130.662 172.267 131.759 169.509 133.792C166.752 135.824 164.699 138.688 163.639 141.972L163.638 141.976L151.263 180.7H111.292C111.291 180.7 111.291 180.7 111.291 180.7C107.871 180.699 104.54 181.802 101.778 183.845C99.0153 185.887 96.9635 188.765 95.9112 192.061C94.859 195.357 94.8587 198.907 95.9103 202.203C96.962 205.499 99.0133 208.377 101.775 210.42L102.663 209.221L101.775 210.42L134.139 234.362L121.779 273.106ZM152.358 198.633L152.36 198.633C155.777 198.63 159.104 197.525 161.862 195.482C164.621 193.439 166.669 190.564 167.72 187.27L167.72 187.27L178.986 151.939L190.258 187.27L190.258 187.27C191.31 190.568 193.362 193.446 196.125 195.489C198.889 197.533 202.22 198.635 205.642 198.633C205.642 198.633 205.642 198.633 205.643 198.633H242.157L212.575 220.507L212.574 220.508C209.813 222.552 207.763 225.429 206.712 228.725C205.661 232.021 205.662 235.57 206.714 238.865L217.996 274.21L188.494 252.39C185.732 250.347 182.402 249.245 178.982 249.245C175.561 249.245 172.231 250.347 169.469 252.39L169.469 252.39L139.981 274.209L151.257 238.857L151.257 238.857C152.307 235.563 152.307 232.016 151.256 228.722C150.205 225.427 148.156 222.551 145.397 220.508L145.396 220.508L115.84 198.633H152.358Z" fill="#222831" stroke="#222831" stroke-width="3"/>
</svg>
