<svg width="162" height="189" viewBox="0 0 162 189" fill="none" xmlns="http://www.w3.org/2000/svg">
<rect width="162" height="189" rx="30" fill="#222831"/>
<path d="M53.366 149.6V172H40.662C38.806 172 37.2273 171.861 35.926 171.584C34.646 171.307 33.59 170.72 32.758 169.824C31.926 168.928 31.51 167.595 31.51 165.824C31.51 164.331 31.766 162.517 32.278 160.384L35.862 160.576L35.702 161.888C35.51 163.424 35.414 164.405 35.414 164.832C35.414 167.008 36.9927 168.096 40.15 168.096H49.078V149.6H53.366ZM45.974 159.68L38.966 161.056L38.614 159.552L40.086 159.168C39.254 158.464 38.838 157.6 38.838 156.576C38.838 155.701 39.1473 154.944 39.766 154.304C40.406 153.664 41.2167 153.344 42.198 153.344C43.03 153.344 43.862 153.6 44.694 154.112L44.278 156.032C44.15 155.925 43.9687 155.829 43.734 155.744C43.4993 155.637 43.2327 155.584 42.934 155.584C42.4433 155.584 42.038 155.744 41.718 156.064C41.4193 156.384 41.27 156.768 41.27 157.216C41.27 157.813 41.526 158.293 42.038 158.656L45.526 157.728L45.974 159.68ZM59.3735 179.936C59.0962 179.936 58.3175 179.893 57.0375 179.808V175.968L58.1255 176.032C58.8935 176.032 59.4695 175.723 59.8535 175.104C60.2375 174.507 60.4295 173.653 60.4295 172.544V156H64.7175V171.808C64.7175 174.368 64.2695 176.363 63.3735 177.792C62.4988 179.221 61.1655 179.936 59.3735 179.936ZM76.4565 168.096V172H69.0325V149.6H73.3205V168.096H76.4565ZM76.2812 168.096H84.2812V172H76.2812V168.096ZM96.4093 156.48C98.1159 156.48 99.4279 156.939 100.345 157.856C101.263 158.773 101.871 159.808 102.169 160.96C102.489 162.112 102.649 163.189 102.649 164.192V172H84.1213V168.096H98.3613V164.16C98.3613 163.051 98.0946 162.144 97.5613 161.44C97.0493 160.736 96.4306 160.384 95.7053 160.384H87.1293L84.9213 157.408L86.8413 153.664C87.2679 152.811 87.8439 151.904 88.5693 150.944C89.2946 149.963 89.9773 149.12 90.6173 148.416L93.7853 150.208C92.6759 151.787 91.6306 153.504 90.6493 155.36L90.0733 156.48H96.4093ZM111.663 155.264C113.369 155.264 114.863 155.691 116.143 156.544C117.444 157.376 118.447 158.635 119.151 160.32C119.876 162.005 120.239 164.075 120.239 166.528V172H105.679V168.096H115.951V166.944C115.951 164.171 115.428 162.197 114.383 161.024C113.337 159.829 112.089 159.232 110.639 159.232H107.407L107.087 155.872C107.748 155.723 108.495 155.584 109.327 155.456C110.18 155.328 110.959 155.264 111.663 155.264ZM108.175 148H112.111V152.16H108.175V148ZM123.611 152.352H127.899V172H123.611V152.352ZM129.275 149.248L122.267 150.624L121.915 149.12L123.387 148.736C122.555 148.032 122.139 147.168 122.139 146.144C122.139 145.269 122.449 144.512 123.067 143.872C123.707 143.232 124.518 142.912 125.499 142.912C126.331 142.912 127.163 143.168 127.995 143.68L127.579 145.6C127.451 145.493 127.27 145.397 127.035 145.312C126.801 145.205 126.534 145.152 126.235 145.152C125.745 145.152 125.339 145.312 125.019 145.632C124.721 145.952 124.571 146.336 124.571 146.784C124.571 147.381 124.827 147.861 125.339 148.224L128.827 147.296L129.275 149.248Z" fill="#EAEAEA"/>
<path d="M25 30C25 18.9543 33.9543 10 45 10H117.667C128.712 10 137.667 18.9543 137.667 30V120C137.667 131.046 128.712 140 117.667 140H45C33.9543 140 25 131.046 25 120V30Z" fill="#EAEAEA"/>
<path d="M119.069 18.6667H43.5972C40.9634 18.6667 38.4376 19.6559 36.5752 21.4166C34.7129 23.1774 33.6666 25.5655 33.6666 28.0556V120.067C33.6666 123.055 34.9221 125.921 37.1569 128.033C39.3917 130.146 42.4228 131.333 45.5833 131.333H119.069C121.703 131.333 124.229 130.344 126.091 128.583C127.954 126.823 129 124.435 129 121.944V28.0556C129 25.5655 127.954 23.1774 126.091 21.4166C124.229 19.6559 121.703 18.6667 119.069 18.6667V18.6667ZM49.5555 22.4222H65.4444V46.6831L58.7314 41.6131C58.3831 41.346 57.9484 41.2002 57.5 41.2002C57.0515 41.2002 56.6168 41.346 56.2686 41.6131L49.5555 46.6831V22.4222ZM125.028 112.556C125.023 114.048 124.394 115.479 123.277 116.534C122.161 117.59 120.648 118.184 119.069 118.189H55.5138C54.9871 118.189 54.4819 118.387 54.1095 118.739C53.737 119.091 53.5277 119.569 53.5277 120.067C53.5277 120.565 53.737 121.042 54.1095 121.394C54.4819 121.747 54.9871 121.944 55.5138 121.944H119.069C121.227 121.939 123.322 121.259 125.028 120.01V121.944C125.023 123.437 124.394 124.867 123.277 125.923C122.161 126.978 120.648 127.573 119.069 127.578H45.5833C43.4763 127.578 41.4556 126.786 39.9657 125.378C38.4758 123.969 37.6388 122.059 37.6388 120.067C37.6388 118.075 38.4758 116.164 39.9657 114.756C41.4556 113.347 43.4763 112.556 45.5833 112.556H119.069C121.218 112.558 123.31 111.899 125.028 110.678V112.556ZM125.028 103.167C125.023 104.659 124.394 106.09 123.277 107.145C122.161 108.201 120.648 108.796 119.069 108.8H45.5833C42.6481 108.803 39.818 109.833 37.6388 111.692V28.0556C37.6436 26.5629 38.2728 25.1326 39.3892 24.0771C40.5056 23.0216 42.0184 22.4267 43.5972 22.4222H45.5833V50.5889C45.5844 50.9428 45.6912 51.2893 45.8915 51.5883C46.0918 51.8873 46.3774 52.1267 46.7154 52.2789C47.0495 52.4335 47.4234 52.4944 47.7929 52.4544C48.1625 52.4145 48.5122 52.2754 48.8008 52.0536L57.5 45.4813L66.1991 52.0536C66.5454 52.324 66.9814 52.4702 67.4305 52.4667C67.7272 52.4715 68.0206 52.407 68.2845 52.2789C68.6225 52.1267 68.9081 51.8873 69.1084 51.5883C69.3087 51.2893 69.4156 50.9428 69.4166 50.5889V22.4222H119.069C120.648 22.4267 122.161 23.0216 123.277 24.0771C124.394 25.1326 125.023 26.5629 125.028 28.0556V103.167Z" fill="#222831"/>
<path d="M47.5695 118.189H43.5973C43.0706 118.189 42.5654 118.387 42.1929 118.739C41.8205 119.091 41.6112 119.569 41.6112 120.067C41.6112 120.565 41.8205 121.042 42.1929 121.394C42.5654 121.747 43.0706 121.944 43.5973 121.944H47.5695C48.0963 121.944 48.6015 121.747 48.9739 121.394C49.3464 121.042 49.5557 120.565 49.5557 120.067C49.5557 119.569 49.3464 119.091 48.9739 118.739C48.6015 118.387 48.0963 118.189 47.5695 118.189Z" fill="#222831"/>
<path d="M105.167 101.289H111.125C112.705 101.289 114.221 100.695 115.338 99.6389C116.456 98.5825 117.083 97.1496 117.083 95.6556V90.0222C117.083 89.5242 116.874 89.0466 116.502 88.6944C116.129 88.3423 115.624 88.1444 115.097 88.1444C114.57 88.1444 114.065 88.3423 113.693 88.6944C113.32 89.0466 113.111 89.5242 113.111 90.0222V95.6556C113.111 96.1536 112.902 96.6312 112.529 96.9833C112.157 97.3355 111.652 97.5333 111.125 97.5333H105.167C104.64 97.5333 104.135 97.7312 103.762 98.0833C103.39 98.4355 103.181 98.9131 103.181 99.4111C103.181 99.9091 103.39 100.387 103.762 100.739C104.135 101.091 104.64 101.289 105.167 101.289Z" fill="#222831"/>
<path d="M60.6599 70.5271L69.659 76.7088L66.223 86.7098C65.9642 87.4639 65.9644 88.2761 66.2237 89.03C66.4829 89.784 66.9878 90.441 67.6662 90.9071C68.3445 91.3731 69.1614 91.6242 70 91.6245C70.8385 91.6248 71.6556 91.3741 72.3343 90.9085L81.3333 84.7269L90.3324 90.9085C91.0074 91.3827 91.8261 91.6388 92.6671 91.6388C93.5081 91.6388 94.3267 91.3827 95.0017 90.9085C95.6875 90.4481 96.198 89.7911 96.4578 89.0348C96.7175 88.2785 96.7125 87.4632 96.4437 86.7098L93.0077 76.7088L102.007 70.5271C102.685 70.0609 103.191 69.4035 103.45 68.6492C103.709 67.8948 103.709 67.0823 103.45 66.328C103.19 65.5737 102.685 64.9163 102.006 64.4502C101.327 63.9841 100.51 63.7332 99.6711 63.7333H88.5489L85.1069 53.7323C84.8457 52.9809 84.3403 52.3267 83.6627 51.8629C82.9851 51.3991 82.1699 51.1494 81.3333 51.1494C80.4968 51.1494 79.6816 51.3991 79.004 51.8629C78.3264 52.3267 77.8209 52.9809 77.5597 53.7323L74.1178 63.7333H62.9956C62.1567 63.7332 61.3392 63.9841 60.6605 64.4502C59.9817 64.9163 59.4765 65.5737 59.2171 66.328C58.9578 67.0823 58.9577 67.8948 59.2169 68.6492C59.4761 69.4035 59.9812 70.0609 60.6599 70.5271V70.5271ZM74.1178 67.4889C74.9559 67.488 75.7723 67.2366 76.4501 66.7704C77.1279 66.3043 77.6324 65.6474 77.8914 64.8938L81.3333 54.8702V54.8927L84.7693 64.8938C85.0286 65.6484 85.534 66.3059 86.213 66.7721C86.892 67.2383 87.7097 67.4892 88.5489 67.4889H99.6711L90.6681 73.6705C89.9896 74.1368 89.4847 74.7942 89.2257 75.5484C88.9667 76.3027 88.9668 77.1151 89.2261 77.8692L92.6641 87.8703L83.663 81.6886C82.9844 81.2225 82.1672 80.9715 81.3284 80.9715C80.4896 80.9715 79.6723 81.2225 78.9937 81.6886L69.9966 87.8703L73.4326 77.8674C73.6914 77.1135 73.6913 76.3015 73.4323 75.5476C73.1733 74.7937 72.6687 74.1367 71.9907 73.6705L62.9956 67.4889H74.1178Z" fill="#222831"/>
</svg>
