<svg width="386" height="128" viewBox="0 0 386 128" fill="none" xmlns="http://www.w3.org/2000/svg">
<path d="M61.9814 35.92V100H28.4114C22.8914 100 18.3914 99.55 14.9114 98.65C11.4314 97.75 8.79137 96.19 6.99137 93.97C5.25137 91.69 4.38137 88.54 4.38137 84.52C4.38137 80.74 5.13137 75.04 6.63137 67.42L13.6514 67.78L13.2914 70.66C12.4514 76.3 12.0314 80.26 12.0314 82.54C12.0314 86.02 13.1714 88.54 15.4514 90.1C17.7914 91.6 21.9614 92.35 27.9614 92.35H53.4314V35.92H61.9814ZM42.1814 64.72L23.3714 68.41L22.4714 65.17L26.7914 64C25.7114 63.16 24.9014 62.17 24.3614 61.03C23.8214 59.83 23.5514 58.6 23.5514 57.34C23.5514 55.06 24.3614 53.08 25.9814 51.4C27.6014 49.72 29.7014 48.88 32.2814 48.88C34.5614 48.88 36.7814 49.6 38.9414 51.04L37.9514 55.09C37.5914 54.79 37.0514 54.49 36.3314 54.19C35.6114 53.89 34.8314 53.74 33.9914 53.74C32.4914 53.74 31.2614 54.25 30.3014 55.27C29.3414 56.23 28.8614 57.4 28.8614 58.78C28.8614 60.46 29.5814 61.84 31.0214 62.92L41.1014 60.22L42.1814 64.72ZM80.1086 122.41C78.7286 122.41 77.2286 122.32 75.6086 122.14L73.4486 121.96V114.4C75.4286 114.58 77.0486 114.67 78.3086 114.67C81.0086 114.67 83.0486 113.59 84.4286 111.43C85.8086 109.27 86.4986 106.24 86.4986 102.34V55.09H94.9586V100.54C94.9586 107.62 93.7286 113.02 91.2686 116.74C88.8086 120.52 85.0886 122.41 80.1086 122.41ZM125.98 92.35V100H108.88V35.92H117.43V92.35H125.98ZM158.951 59.68C164.651 59.68 168.701 61.69 171.101 65.71C173.561 69.73 174.791 74.47 174.791 79.93V100H126.011V92.35H166.331V79.84C166.331 76.48 165.641 73.57 164.261 71.11C162.881 68.65 160.781 67.39 157.961 67.33H133.661L128.531 60.49L133.481 50.86C134.621 48.64 136.241 46.06 138.341 43.12C140.501 40.12 142.631 37.36 144.731 34.84L150.851 38.35C146.831 44.35 143.651 49.6 141.311 54.1L138.341 59.68H158.951ZM198.061 53.02C202.381 53.02 206.281 54.07 209.761 56.17C213.301 58.21 216.121 61.51 218.221 66.07C220.321 70.63 221.371 76.48 221.371 83.62V100H183.751V92.35H212.911V84.07C212.911 75.55 211.261 69.55 207.961 66.07C204.661 62.53 200.791 60.76 196.351 60.76H188.521L187.891 54.37C188.791 54.07 190.261 53.77 192.301 53.47C194.341 53.17 196.261 53.02 198.061 53.02ZM190.591 35.38H198.781V44.2H190.591V35.38ZM233.157 43.66H241.707V100H233.157V43.66ZM246.927 36.19L228.117 39.88L227.217 36.64L231.537 35.47C230.457 34.63 229.647 33.64 229.107 32.5C228.567 31.3 228.297 30.07 228.297 28.81C228.297 26.53 229.107 24.55 230.727 22.87C232.347 21.19 234.447 20.35 237.027 20.35C239.307 20.35 241.527 21.07 243.687 22.51L242.697 26.56C242.337 26.26 241.797 25.96 241.077 25.66C240.357 25.36 239.577 25.21 238.737 25.21C237.237 25.21 236.007 25.72 235.047 26.74C234.087 27.7 233.607 28.87 233.607 30.25C233.607 31.93 234.327 33.31 235.767 34.39L245.847 31.69L246.927 36.19Z" fill="#EAEAEA"/>
<path d="M275 20C275 8.95431 283.954 0 295 0H365.933C376.979 0 385.933 8.95431 385.933 20V108C385.933 119.046 376.979 128 365.933 128H295C283.954 128 275 119.046 275 108V20Z" fill="#EAEAEA"/>
<path d="M367.622 8.53334H293.311C290.718 8.53334 288.231 9.50731 286.397 11.241C284.563 12.9746 283.533 15.326 283.533 17.7778V108.373C283.533 111.315 284.77 114.137 286.97 116.218C289.17 118.298 292.155 119.467 295.267 119.467H367.622C370.215 119.467 372.702 118.493 374.536 116.759C376.37 115.025 377.4 112.674 377.4 110.222V17.7778C377.4 15.326 376.37 12.9746 374.536 11.241C372.702 9.50731 370.215 8.53334 367.622 8.53334V8.53334ZM299.178 12.2311H314.822V36.1188L308.212 31.1268C307.87 30.8637 307.442 30.7202 307 30.7202C306.558 30.7202 306.13 30.8637 305.788 31.1268L299.178 36.1188V12.2311ZM373.489 100.978C373.484 102.448 372.865 103.856 371.765 104.895C370.666 105.934 369.177 106.52 367.622 106.524H305.044C304.526 106.524 304.028 106.719 303.662 107.066C303.295 107.413 303.089 107.883 303.089 108.373C303.089 108.864 303.295 109.334 303.662 109.681C304.028 110.027 304.526 110.222 305.044 110.222H367.622C369.746 110.217 371.809 109.547 373.489 108.318V110.222C373.484 111.692 372.865 113.1 371.765 114.139C370.666 115.179 369.177 115.765 367.622 115.769H295.267C293.192 115.769 291.202 114.99 289.736 113.603C288.269 112.216 287.444 110.335 287.444 108.373C287.444 106.412 288.269 104.531 289.736 103.144C291.202 101.757 293.192 100.978 295.267 100.978H367.622C369.738 100.98 371.797 100.331 373.489 99.1289V100.978ZM373.489 91.7333C373.484 93.2031 372.865 94.6113 371.765 95.6506C370.666 96.6898 369.177 97.2756 367.622 97.28H295.267C292.377 97.2825 289.59 98.2968 287.444 100.127V17.7778C287.449 16.3081 288.069 14.8998 289.168 13.8605C290.267 12.8213 291.757 12.2355 293.311 12.2311H295.267V39.9645C295.268 40.3129 295.373 40.6541 295.57 40.9485C295.767 41.2429 296.049 41.4786 296.381 41.6285C296.71 41.7806 297.078 41.8406 297.442 41.8013C297.806 41.762 298.15 41.625 298.435 41.4066L307 34.9355L315.565 41.4066C315.906 41.6728 316.336 41.8168 316.778 41.8133C317.07 41.8181 317.359 41.7546 317.619 41.6285C317.951 41.4786 318.233 41.2429 318.43 40.9485C318.627 40.6541 318.732 40.3129 318.733 39.9645V12.2311H367.622C369.177 12.2355 370.666 12.8213 371.765 13.8605C372.865 14.8998 373.484 16.3081 373.489 17.7778V91.7333Z" fill="#222831"/>
<path d="M297.222 106.524H293.311C292.793 106.524 292.295 106.719 291.928 107.066C291.562 107.413 291.356 107.883 291.356 108.373C291.356 108.864 291.562 109.334 291.928 109.681C292.295 110.027 292.793 110.222 293.311 110.222H297.222C297.741 110.222 298.238 110.027 298.605 109.681C298.972 109.334 299.178 108.864 299.178 108.373C299.178 107.883 298.972 107.413 298.605 107.066C298.238 106.719 297.741 106.524 297.222 106.524Z" fill="#222831"/>
<path d="M353.933 89.8844H359.8C361.356 89.8844 362.848 89.3001 363.948 88.2599C365.049 87.2197 365.667 85.8088 365.667 84.3378V78.7911C365.667 78.3007 365.461 77.8305 365.094 77.4837C364.727 77.137 364.23 76.9422 363.711 76.9422C363.192 76.9422 362.695 77.137 362.328 77.4837C361.962 77.8305 361.756 78.3007 361.756 78.7911V84.3378C361.756 84.8281 361.55 85.2984 361.183 85.6451C360.816 85.9919 360.319 86.1867 359.8 86.1867H353.933C353.415 86.1867 352.917 86.3815 352.551 86.7282C352.184 87.0749 351.978 87.5452 351.978 88.0355C351.978 88.5259 352.184 88.9962 352.551 89.3429C352.917 89.6896 353.415 89.8844 353.933 89.8844Z" fill="#222831"/>
<path d="M310.111 59.5959L318.972 65.6825L315.589 75.5297C315.334 76.2721 315.334 77.0718 315.589 77.8142C315.845 78.5565 316.342 79.2035 317.01 79.6623C317.678 80.1212 318.482 80.3685 319.308 80.3687C320.133 80.369 320.938 80.1222 321.606 79.6638L330.467 73.5772L339.327 79.6638C339.992 80.1307 340.798 80.3828 341.626 80.3828C342.454 80.3828 343.26 80.1307 343.925 79.6638C344.6 79.2105 345.103 78.5635 345.358 77.8189C345.614 77.0742 345.609 76.2715 345.345 75.5297L341.961 65.6825L350.822 59.5959C351.49 59.1369 351.988 58.4896 352.243 57.7469C352.498 57.0041 352.498 56.2041 352.243 55.4614C351.987 54.7187 351.49 54.0715 350.821 53.6125C350.153 53.1536 349.348 52.9065 348.522 52.9067H337.571L334.182 43.0595C333.925 42.3197 333.427 41.6755 332.76 41.2188C332.093 40.7622 331.29 40.5163 330.467 40.5163C329.643 40.5163 328.84 40.7622 328.173 41.2188C327.506 41.6755 327.008 42.3197 326.751 43.0595L323.362 52.9067H312.411C311.585 52.9065 310.78 53.1536 310.112 53.6125C309.444 54.0715 308.946 54.7187 308.691 55.4614C308.435 56.2041 308.435 57.0041 308.69 57.7469C308.946 58.4896 309.443 59.1369 310.111 59.5959V59.5959ZM323.362 56.6044C324.187 56.6036 324.991 56.356 325.659 55.897C326.326 55.4381 326.823 54.7913 327.078 54.0493L330.467 44.1799V44.2021L333.85 54.0493C334.105 54.7922 334.603 55.4396 335.271 55.8987C335.94 56.3577 336.745 56.6048 337.571 56.6044H348.522L339.658 62.691C338.99 63.1501 338.493 63.7974 338.238 64.54C337.983 65.2826 337.983 66.0825 338.238 66.8251L341.623 76.6723L332.761 70.5857C332.092 70.1268 331.288 69.8796 330.462 69.8796C329.636 69.8796 328.831 70.1268 328.163 70.5857L319.304 76.6723L322.687 66.8232C322.942 66.0809 322.942 65.2814 322.687 64.5392C322.432 63.7969 321.935 63.15 321.268 62.691L312.411 56.6044H323.362Z" fill="#222831"/>
</svg>
